<?xml version="1.0" standalone="no"?>
<!DOCTYPE svg PUBLIC "-//W3C//DTD SVG 20010904//EN"
 "http://www.w3.org/TR/2001/REC-SVG-20010904/DTD/svg10.dtd">
<svg version="1.0" xmlns="http://www.w3.org/2000/svg"
 width="256.000000pt" height="256.000000pt" viewBox="0 0 256.000000 256.000000"
 preserveAspectRatio="xMidYMid meet">

<g transform="translate(0.000000,256.000000) scale(0.100000,-0.100000)"
fill="#000000" stroke="none">
<path d="M663 2146 c-103 -33 -185 -106 -232 -205 l-26 -56 0 -605 0 -605 27
-57 c37 -79 98 -142 177 -181 l66 -32 305 -3 c302 -3 305 -3 322 19 23 28 25
125 2 157 -15 22 -17 22 -297 22 -274 0 -283 1 -322 23 -22 13 -49 40 -62 62
-20 35 -23 54 -23 162 l0 122 188 143 c103 80 193 148 200 152 9 5 68 -34 173
-114 89 -67 170 -125 180 -127 15 -4 32 8 65 42 59 64 65 89 28 125 -62 60
-417 320 -438 320 -12 0 -101 -62 -206 -143 l-185 -144 -3 304 c-3 340 -1 350
66 401 l35 27 564 3 c629 3 607 5 661 -66 l27 -35 3 -291 c3 -342 -2 -326 102
-326 107 0 102 -17 98 342 l-3 303 -32 66 c-39 79 -102 140 -181 177 l-57 27
-590 2 c-468 2 -599 -1 -632 -11z"/>
<path d="M1535 1746 c-101 -44 -125 -178 -46 -257 65 -65 157 -65 222 0 124
124 -15 327 -176 257z"/>
<path d="M1720 1044 c-227 -82 -293 -362 -125 -529 82 -82 211 -115 316 -81
l52 17 56 -54 c90 -88 106 -90 175 -19 55 58 52 80 -23 156 l-62 63 17 52 c47
143 -30 313 -171 380 -65 31 -172 38 -235 15z m184 -223 c26 -27 31 -39 31
-81 0 -43 -5 -54 -33 -82 -28 -28 -39 -33 -82 -33 -43 0 -54 5 -82 33 -28 28
-33 39 -33 81 0 52 25 92 70 112 37 16 96 3 129 -30z"/>
</g>
</svg>
