<?xml version="1.0" standalone="no"?>
<!DOCTYPE svg PUBLIC "-//W3C//DTD SVG 20010904//EN"
 "http://www.w3.org/TR/2001/REC-SVG-20010904/DTD/svg10.dtd">
<svg version="1.0" xmlns="http://www.w3.org/2000/svg"
 width="96.000000pt" height="96.000000pt" viewBox="0 0 96.000000 96.000000"
 preserveAspectRatio="xMidYMid meet">

<g transform="translate(0.000000,96.000000) scale(0.100000,-0.100000)"
fill="#303030" stroke="none">
<path d="M142 828 c-5 -7 -13 -38 -16 -69 -6 -44 -4 -58 8 -69 23 -18 44 3 48
48 l3 37 123 3 122 3 0 -284 c0 -262 -1 -285 -18 -300 -10 -10 -30 -17 -44
-17 -34 0 -55 -24 -38 -45 10 -12 40 -15 150 -15 110 0 140 3 150 15 17 21 -4
45 -40 45 -58 0 -60 9 -60 319 l0 282 123 -3 122 -3 3 -37 c4 -45 25 -66 48
-48 12 11 14 25 8 69 -3 31 -11 62 -16 69 -8 9 -88 12 -338 12 -250 0 -330 -3
-338 -12z"/>
</g>
</svg>
