<?xml version="1.0" standalone="no"?>
<!DOCTYPE svg PUBLIC "-//W3C//DTD SVG 20010904//EN"
 "http://www.w3.org/TR/2001/REC-SVG-20010904/DTD/svg10.dtd">
<svg version="1.0" xmlns="http://www.w3.org/2000/svg"
 width="90.000000pt" height="90.000000pt" viewBox="0 0 90.000000 90.000000"
 preserveAspectRatio="xMidYMid meet">

<g transform="translate(0.000000,90.000000) scale(0.100000,-0.100000)"
fill="#303030" stroke="none">
<path d="M80 730 c-19 -19 -20 -33 -20 -280 0 -247 1 -261 20 -280 19 -19 33
-20 370 -20 337 0 351 1 370 20 19 19 20 33 20 280 0 247 -1 261 -20 280 -19
19 -33 20 -370 20 -337 0 -351 -1 -370 -20z m652 -87 c38 -34 11 -103 -40
-103 -54 0 -81 62 -45 102 20 22 61 23 85 1z m-339 -263 c28 0 32 29 7 62
l-22 30 21 21 21 22 84 -84 c91 -90 123 -103 119 -45 -2 21 4 37 17 49 20 18
22 18 65 -25 44 -43 45 -46 45 -107 l0 -63 -300 0 -300 0 0 182 0 183 113
-113 c62 -61 120 -112 130 -112z"/>
</g>
</svg>
