<svg xmlns="http://www.w3.org/2000/svg" width="24" height="24" fill="currentColor"
    viewBox="0 0 24 24">
    <path fill-rule="evenodd" clip-rule="evenodd"
        d="M11.4697 20.7803C11.7625 21.0732 12.2374 21.0732 12.5303 20.7803L15.0303 18.2803C15.3232 17.9874 15.3232 17.5126 15.0303 17.2197C14.7374 16.9268 14.2626 16.9268 13.9697 17.2197L12.75 18.4393L12.75 12.75C12.75 12.3358 12.4142 12 12 12C11.5858 12 11.25 12.3358 11.25 12.75L11.25 18.4393L10.0303 17.2197C9.73742 16.9268 9.26254 16.9268 8.96965 17.2197C8.67676 17.5126 8.67676 17.9874 8.96965 18.2803L11.4697 20.7803ZM7.23792 11.0489C7.41799 11.422 7.26158 11.8703 6.88856 12.0504L6.38309 12.2944L8.73731 13.5933C9.09999 13.7934 9.23178 14.2496 9.03168 14.6123C8.83159 14.975 8.37537 15.1068 8.01269 14.9067L4.38769 12.9067C4.14211 12.7712 3.99265 12.51 4.00028 12.2296C4.00791 11.9492 4.17135 11.6965 4.42394 11.5746L6.23644 10.6996C6.60946 10.5195 7.05784 10.6759 7.23792 11.0489ZM16.7621 11.0489C16.9422 10.6759 17.3905 10.5195 17.7636 10.6996L19.5761 11.5746C19.8287 11.6965 19.9921 11.9492 19.9997 12.2296C20.0074 12.51 19.8579 12.7712 19.6123 12.9067L15.9873 14.9067C15.6246 15.1068 15.1684 14.975 14.9683 14.6123C14.7682 14.2496 14.9 13.7934 15.2627 13.5933L17.6169 12.2944L17.1114 12.0504C16.7384 11.8703 16.582 11.422 16.7621 11.0489ZM11.6739 3.07459C11.8799 2.97514 12.1201 2.97514 12.3261 3.07459L19.5761 6.57459C19.8287 6.69653 19.9921 6.94922 19.9997 7.2296C20.0074 7.50998 19.8579 7.77119 19.6123 7.90668L15.9873 9.90668C15.6246 10.1068 15.1684 9.97498 14.9683 9.61231C14.7682 9.24963 14.9 8.79341 15.2627 8.59332L17.6169 7.29444L12 4.58282L6.38309 7.29444L8.73731 8.59332C9.09999 8.79341 9.23178 9.24963 9.03168 9.61231C8.83159 9.97498 8.37537 10.1068 8.01269 9.90668L4.38769 7.90668C4.14211 7.77119 3.99265 7.50998 4.00028 7.2296C4.00791 6.94922 4.17135 6.69653 4.42394 6.57459L11.6739 3.07459Z"></path>
</svg>