<?xml version="1.0" standalone="no"?>
<!DOCTYPE svg PUBLIC "-//W3C//DTD SVG 20010904//EN"
 "http://www.w3.org/TR/2001/REC-SVG-20010904/DTD/svg10.dtd">
<svg version="1.0" xmlns="http://www.w3.org/2000/svg"
 width="64.000000pt" height="64.000000pt" viewBox="0 0 64.000000 64.000000"
 preserveAspectRatio="xMidYMid meet">

<g transform="translate(0.000000,64.000000) scale(0.100000,-0.100000)"
fill="#303030" stroke="none">
<path d="M470 546 l0 -34 -142 -4 c-135 -3 -146 -5 -190 -31 -138 -81 -139
-283 -1 -364 37 -22 62 -28 130 -31 l83 -5 0 32 0 31 -71 0 c-86 0 -136 24
-168 80 -41 74 -15 167 59 209 33 18 54 21 169 21 l131 0 0 -35 0 -35 65 47
c36 26 65 49 65 53 0 4 -29 27 -65 53 l-65 47 0 -34z"/>
</g>
</svg>
