<svg xmlns="http://www.w3.org/2000/svg" width="24" height="24" fill="currentColor"
   viewBox="0 0 24 24">
    <path fill-rule="evenodd" clip-rule="evenodd" d="M12.5303 3.21967C12.2375 2.92678 11.7626 2.92678 11.4697 3.21967L8.96967 5.71967C8.67678 6.01256 8.67678 6.48743 8.96967 6.78033C9.26256 7.07322 9.73743 7.07322 10.0303 6.78033L11.25 5.56065V11.25C11.25 11.6642 11.5858 12 12 12C12.4142 12 12.75 11.6642 12.75 11.25V5.56066L13.9697 6.78033C14.2626 7.07322 14.7375 7.07322 15.0304 6.78033C15.3232 6.48744 15.3232 6.01256 15.0304 5.71967L12.5303 3.21967ZM9.05042 9.17394C9.23049 9.54696 9.07408 9.99533 8.70106 10.1754L6.38309 11.2944L12 14.3934L17.6169 11.2944L15.2989 10.1754C14.9259 9.99533 14.7695 9.54696 14.9496 9.17394C15.1297 8.80092 15.578 8.64451 15.9511 8.82459L19.5761 10.5746C19.8287 10.6965 19.9921 10.9492 19.9997 11.2296C20.0074 11.51 19.8579 11.7712 19.6123 11.9067L12.3623 15.9067C12.1368 16.0311 11.8632 16.0311 11.6377 15.9067L4.38769 11.9067C4.14211 11.7712 3.99265 11.51 4.00028 11.2296C4.00791 10.9492 4.17135 10.6965 4.42394 10.5746L8.04894 8.82459C8.42196 8.64451 8.87034 8.80092 9.05042 9.17394ZM7.23791 15.0489C7.41799 15.422 7.26158 15.8703 6.88856 16.0504L6.38309 16.2944L12 19.3934L17.6169 16.2944L17.1114 16.0504C16.7384 15.8703 16.582 15.422 16.7621 15.0489C16.9422 14.6759 17.3905 14.5195 17.7636 14.6996L19.5761 15.5746C19.8287 15.6965 19.9921 15.9492 19.9997 16.2296C20.0074 16.51 19.8579 16.7712 19.6123 16.9067L12.3623 20.9067C12.1368 21.0311 11.8632 21.0311 11.6377 20.9067L4.38769 16.9067C4.14211 16.7712 3.99265 16.51 4.00028 16.2296C4.00791 15.9492 4.17135 15.6965 4.42394 15.5746L6.23644 14.6996C6.60946 14.5195 7.05784 14.6759 7.23791 15.0489Z"></path>
</svg>